<?xml version="1.0" encoding="UTF-8"?>
<svg xmlns="http://www.w3.org/2000/svg" width="390" height="844" viewBox="0 0 390 844" role="img" aria-labelledby="title">
  <title id="title">01 Splash</title>
  <defs>
    <filter id="shadow" x="-40%" y="-40%" width="180%" height="200%"><feDropShadow dx="0" dy="10" stdDeviation="14" flood-color="#1E3023" flood-opacity=".12"/></filter>
    <filter id="softShadow" x="-30%" y="-30%" width="160%" height="180%"><feDropShadow dx="0" dy="5" stdDeviation="8" flood-color="#1E3023" flood-opacity=".09"/></filter>
    <linearGradient id="hero" x1="0" y1="0" x2="1" y2="1"><stop stop-color="#FBFCFA"/><stop offset="1" stop-color="#E9F4E4"/></linearGradient>
    <linearGradient id="brandGrad" x1="0" y1="0" x2="1" y2="1"><stop stop-color="#8FD253"/><stop offset="1" stop-color="#5CA322"/></linearGradient>
  </defs>
  <rect width="390" height="844" fill="#FBFCFA"/>
  <text x="20" y="23" font-family="Inter,Arial,sans-serif" font-size="11" font-weight="750" fill="#233028" text-anchor="start" >9:41</text>
  <g fill="#233028" transform="translate(321 15)"><rect width="3" height="4" rx="1" y="5"/><rect x="5" width="3" height="6" rx="1" y="3"/><rect x="10" width="3" height="9" rx="1"/><path d="M19 7c3-4 8-4 11 0l-2 2c-2-2-5-2-7 0Z"/><rect x="36" y="1" width="20" height="9" rx="2" fill="none" stroke="#233028"/><rect x="38" y="3" width="14" height="5" rx="1"/><rect x="57" y="4" width="2" height="3" rx="1"/></g><g transform="translate(112 73) scale(1.15)">
    <circle cx="18" cy="18" r="17" fill="#FFFFFF" stroke="#E7EBE7"/>
    <path d="M18 29C8 25 8 13 18 7c10 6 10 18 0 22Z" fill="#7AC143"/>
    <path d="M18 9v17M18 18l-6-4M18 21l7-5" fill="none" stroke="white" stroke-width="1.7" stroke-linecap="round"/>
    <text x="44" y="16" font-family="Inter,Arial,sans-serif" font-size="10" font-weight="800" fill="#233028" text-anchor="start" >HERBALIFE</text><text x="44" y="29" font-family="Inter,Arial,sans-serif" font-size="7" font-weight="650" fill="#7D857F" text-anchor="start" letter-spacing="1.8">NUTRITION</text>
  </g>
    <text x="195" y="160" font-family="Inter,Arial,sans-serif" font-size="25" font-weight="800" fill="#233028" text-anchor="middle"><tspan x="195" dy="0">Ваши любимые</tspan><tspan x="195" dy="30">продукты</tspan><tspan x="195" dy="30">в приложении</tspan></text>
    <path d="M341 608c-54-37-91 11-91 11 49 39 91-11 91-11Z" fill="#BFD9B0" opacity=".8" transform="rotate(13 295 613)"/>
    <path d="M43 730c66-24 94 33 94 33-66 25-94-33-94-33Z" fill="#D6E7CD"/>
    <path d="M284 743c43-38 83 2 83 2-45 37-83-2-83-2Z" fill="#9FCA84" opacity=".8"/>
    <g transform="rotate(-12 122 435)"><g transform="translate(70 330) scale(1.3)" filter="url(#softShadow)">
    <ellipse cx="45" cy="9" rx="35" ry="9" fill="#F9FAF8" stroke="#DDE3DD"/>
    <path d="M10 9h70v94c0 9-70 9-70 0Z" fill="white" stroke="#DDE3DD"/>
    <rect x="13" y="27" width="64" height="59" rx="4" fill="#EF9A3C" opacity=".92"/>
    <path d="M14 57c18-16 44-14 62 4v25H14Z" fill="white" opacity=".92"/>
    <text x="45" y="42" font-family="Inter,Arial,sans-serif" font-size="6" font-weight="800" fill="#FFFFFF" text-anchor="middle" >HERBALIFE</text>
    <text x="45" y="58" font-family="Inter,Arial,sans-serif" font-size="9" font-weight="900" fill="#FFFFFF" text-anchor="middle" >FORMULA 1</text>
    <text x="45" y="74" font-family="Inter,Arial,sans-serif" font-size="5.5" font-weight="800" fill="#233028" text-anchor="middle" >ORANGE</text>
    <ellipse cx="45" cy="103" rx="35" ry="8" fill="#EEF1ED"/>
  </g></g>
    <g transform="rotate(11 266 521)"><g transform="translate(213 412) scale(1.18)" filter="url(#softShadow)">
    <ellipse cx="45" cy="9" rx="35" ry="9" fill="#F9FAF8" stroke="#DDE3DD"/>
    <path d="M10 9h70v94c0 9-70 9-70 0Z" fill="white" stroke="#DDE3DD"/>
    <rect x="13" y="27" width="64" height="59" rx="4" fill="#D3B56C" opacity=".92"/>
    <path d="M14 57c18-16 44-14 62 4v25H14Z" fill="white" opacity=".92"/>
    <text x="45" y="42" font-family="Inter,Arial,sans-serif" font-size="6" font-weight="800" fill="#FFFFFF" text-anchor="middle" >HERBALIFE</text>
    <text x="45" y="58" font-family="Inter,Arial,sans-serif" font-size="9" font-weight="900" fill="#FFFFFF" text-anchor="middle" >FORMULA 1</text>
    <text x="45" y="74" font-family="Inter,Arial,sans-serif" font-size="5.5" font-weight="800" fill="#233028" text-anchor="middle" >VANILLA</text>
    <ellipse cx="45" cy="103" rx="35" ry="8" fill="#EEF1ED"/>
  </g></g>
    <text x="195" y="804" font-family="Inter,Arial,sans-serif" font-size="11" font-weight="550" fill="#7D857F" text-anchor="middle" >Коснитесь, чтобы продолжить</text>
</svg>