<?xml version="1.0" encoding="UTF-8"?>
<svg xmlns="http://www.w3.org/2000/svg" width="390" height="844" viewBox="0 0 390 844" role="img" aria-labelledby="title">
  <title id="title">11 Order success</title>
  <defs>
    <filter id="shadow" x="-40%" y="-40%" width="180%" height="200%"><feDropShadow dx="0" dy="10" stdDeviation="14" flood-color="#1E3023" flood-opacity=".12"/></filter>
    <filter id="softShadow" x="-30%" y="-30%" width="160%" height="180%"><feDropShadow dx="0" dy="5" stdDeviation="8" flood-color="#1E3023" flood-opacity=".09"/></filter>
    <linearGradient id="hero" x1="0" y1="0" x2="1" y2="1"><stop stop-color="#FBFCFA"/><stop offset="1" stop-color="#E9F4E4"/></linearGradient>
    <linearGradient id="brandGrad" x1="0" y1="0" x2="1" y2="1"><stop stop-color="#8FD253"/><stop offset="1" stop-color="#5CA322"/></linearGradient>
  </defs>
  <rect width="390" height="844" fill="#F9FFF5"/>
  <text x="20" y="23" font-family="Inter,Arial,sans-serif" font-size="11" font-weight="750" fill="#233028" text-anchor="start" >9:41</text>
  <g fill="#233028" transform="translate(321 15)"><rect width="3" height="4" rx="1" y="5"/><rect x="5" width="3" height="6" rx="1" y="3"/><rect x="10" width="3" height="9" rx="1"/><path d="M19 7c3-4 8-4 11 0l-2 2c-2-2-5-2-7 0Z"/><rect x="36" y="1" width="20" height="9" rx="2" fill="none" stroke="#233028"/><rect x="38" y="3" width="14" height="5" rx="1"/><rect x="57" y="4" width="2" height="3" rx="1"/></g><circle cx="195" cy="148" r="46" fill="#7AC143" filter="url(#shadow)"/><path d="m174 148 14 14 29-33" fill="none" stroke="white" stroke-width="5" stroke-linecap="round" stroke-linejoin="round"/>
    <text x="195" y="232" font-family="Inter,Arial,sans-serif" font-size="27" font-weight="850" fill="#233028" text-anchor="middle" >Заказ оформлен</text><text x="195" y="267" font-family="Inter,Arial,sans-serif" font-size="12" font-weight="500" fill="#7D857F" text-anchor="middle"><tspan x="195" dy="0">Покажите номер токена у терминала</tspan><tspan x="195" dy="19">выбранного центра продаж.</tspan></text>
    <g filter="url(#softShadow)"><rect x="18" y="337" width="354" height="196" rx="20" fill="#FFFFFF" stroke="#7AC143" stroke-width="1" stroke-dasharray="6 5"/><text x="195" y="375" font-family="Inter,Arial,sans-serif" font-size="10" font-weight="750" fill="#7D857F" text-anchor="middle" letter-spacing="1.5">ТОКЕН ВЫДАЧИ</text><text x="195" y="453" font-family="Inter,Arial,sans-serif" font-size="62" font-weight="900" fill="#5CA322" text-anchor="middle" >247</text><text x="195" y="501" font-family="Inter,Arial,sans-serif" font-size="11" font-weight="600" fill="#7D857F" text-anchor="middle" >Заказ № HK-153872</text></g>
    <rect x="18" y="558" width="354" height="80" rx="14" fill="#F6F8F5" stroke="none" stroke-width="0" /><path d="M46 615s10-10 10-18a10 10 0 1 0-20 0c0 8 10 18 10 18Z" fill="none" stroke="#5CA322" stroke-width="1.6"/><circle cx="46" cy="597" r="3" fill="#5CA322"/><text x="69" y="589" font-family="Inter,Arial,sans-serif" font-size="11" font-weight="750" fill="#233028" text-anchor="start" >Рига, улица Пиедруяс 7A</text><text x="69" y="611" font-family="Inter,Arial,sans-serif" font-size="10" font-weight="500" fill="#7D857F" text-anchor="start" >Заказ хранится до 19:00</text>
    <rect x="18" y="766" width="354" height="52" rx="12" fill="#7AC143" stroke="none" stroke-width="0" /><text x="195" y="797" font-family="Inter,Arial,sans-serif" font-size="13" font-weight="750" fill="#FFFFFF" text-anchor="middle" >Вернуться в каталог</text>
</svg>